<?xml version="1.0" standalone="no"?>
<!DOCTYPE svg PUBLIC "-//W3C//DTD SVG 20010904//EN"
 "http://www.w3.org/TR/2001/REC-SVG-20010904/DTD/svg10.dtd">
<svg version="1.0" xmlns="http://www.w3.org/2000/svg"
 width="500.000000pt" height="500.000000pt" viewBox="0 0 500.000000 500.000000"
 preserveAspectRatio="xMidYMid meet">

<g transform="translate(0.000000,500.000000) scale(0.100000,-0.100000)"
fill="#ffffff" stroke="none">
<path d="M2245 4809 c-33 -4 -73 -10 -90 -13 -16 -3 -57 -11 -90 -16 -341 -61
-737 -243 -1020 -471 -98 -78 -270 -250 -346 -344 -254 -316 -410 -662 -491
-1089 -29 -154 -32 -555 -4 -721 41 -248 110 -463 218 -683 279 -568 765 -987
1376 -1188 73 -24 137 -44 143 -44 6 0 8 93 7 252 l-3 252 -95 36 c-417 158
-772 474 -978 869 -33 64 -68 136 -77 161 -104 288 -120 383 -120 695 0 222 3
262 23 355 95 438 323 808 667 1082 200 159 450 281 710 344 148 36 145 37
145 -38 0 -212 215 -350 405 -259 101 47 153 127 162 247 4 53 10 74 20 74 54
0 276 -63 408 -116 208 -84 475 -268 626 -432 210 -229 362 -498 433 -767 53
-199 60 -256 60 -500 0 -210 -3 -241 -27 -355 -103 -491 -373 -893 -787 -1175
-93 -63 -313 -173 -402 -201 -38 -12 -58 -23 -62 -36 -8 -34 -6 -462 3 -476
16 -25 283 68 470 164 255 130 426 252 611 435 599 596 830 1464 603 2269 -41
149 -120 349 -176 450 -10 19 -33 60 -50 90 -49 88 -154 238 -232 330 -311
367 -724 630 -1175 749 -178 47 -301 70 -400 73 l-75 3 -3 -212 c-3 -189 -1
-219 17 -285 16 -57 19 -81 11 -107 -23 -81 -76 -121 -160 -121 -123 0 -183
97 -140 229 22 69 26 190 13 395 l-6 106 -31 -2 c-17 -1 -58 -6 -91 -9z"/>
<path d="M2453 4336 c-52 -89 -55 -125 -14 -167 37 -37 88 -39 125 -6 43 37
42 72 -6 161 -24 44 -48 81 -53 83 -6 1 -29 -30 -52 -71z"/>
<path d="M2990 3403 c-62 -6 -150 -36 -175 -59 -25 -23 -25 -26 -25 -183 0
-88 4 -171 10 -185 12 -33 71 -62 155 -77 170 -29 363 35 353 118 -3 25 -7 28
-47 31 -28 2 -49 -2 -60 -12 -29 -27 -75 -38 -158 -37 -54 0 -92 5 -112 15
l-30 16 -3 102 c-2 57 0 113 4 125 16 49 185 60 276 17 71 -34 122 -28 122 14
0 37 -24 69 -66 87 -32 13 -171 37 -197 33 -7 0 -28 -3 -47 -5z"/>
<path d="M3357 3393 c-9 -8 -9 -204 0 -362 l6 -121 251 2 251 3 0 50 0 50
-200 5 -200 5 -3 132 -3 133 198 2 198 3 3 53 3 52 -249 0 c-137 0 -252 -3
-255 -7z"/>
<path d="M1747 3379 c-48 -11 -87 -32 -110 -57 -17 -18 -18 -39 -18 -183 2
-178 6 -196 59 -223 77 -40 271 -45 363 -10 24 9 57 30 73 47 l29 31 -6 155
c-3 86 -8 164 -12 173 -10 24 -51 49 -109 64 -57 15 -210 17 -269 3z m224
-100 c19 -6 40 -19 47 -27 13 -17 17 -209 4 -228 -31 -47 -221 -58 -273 -15
-17 14 -21 31 -25 121 -3 58 -1 111 4 118 25 36 171 55 243 31z"/>
<path d="M2184 3377 c-2 -7 -1 -118 3 -247 l8 -235 50 0 50 0 0 190 0 190 160
0 160 0 0 -45 0 -45 -95 -3 c-52 -2 -99 -7 -104 -12 -8 -8 81 -138 162 -235
28 -35 31 -36 92 -33 l62 3 -61 74 c-33 41 -58 78 -55 82 2 4 20 13 39 19 53
17 80 69 79 150 -1 74 -27 129 -70 148 -38 18 -473 17 -480 -1z"/>
<path d="M1227 3373 l-127 -4 2 -242 3 -242 53 -3 52 -3 0 189 0 189 172 7
c95 4 176 10 180 12 4 3 8 25 8 49 0 53 -5 56 -123 53 -51 -1 -149 -4 -220 -5z"/>
<path d="M3580 3197 c0 -6 18 -31 40 -55 l41 -43 97 3 c94 3 97 4 106 29 5 14
6 38 2 53 l-6 26 -140 0 c-106 0 -140 -3 -140 -13z"/>
<path d="M1326 3168 c4 -7 21 -30 38 -51 l30 -38 85 3 86 3 3 48 3 47 -126 0
c-98 0 -125 -3 -119 -12z"/>
<path d="M3237 2673 c-9 -8 -9 -151 0 -410 l6 -203 307 0 c253 0 310 3 319 14
7 8 11 37 9 68 l-3 53 -250 5 -250 5 -3 167 -2 168 247 2 248 3 3 68 3 67
-314 0 c-172 0 -317 -3 -320 -7z"/>
<path d="M2290 2441 c0 -171 -3 -231 -12 -238 -51 -40 -246 -50 -314 -17 l-39
19 -5 225 -5 225 -68 3 -68 3 3 -261 3 -262 37 -33 c116 -107 497 -93 587 21
20 26 21 38 21 285 l0 259 -70 0 -70 0 0 -229z"/>
<path d="M2483 2543 c4 -71 7 -211 7 -312 l0 -184 285 5 c324 7 330 8 373 88
21 40 23 53 18 125 -8 105 -8 119 0 193 8 78 -12 138 -62 182 l-35 30 -296 0
-296 0 6 -127z m525 -15 c7 -7 12 -26 12 -43 0 -50 -12 -55 -142 -55 -65 0
-118 -3 -118 -7 0 -5 21 -34 47 -65 l46 -58 71 0 c39 0 77 -4 84 -9 7 -4 14
-23 14 -41 2 -56 -14 -60 -214 -60 -176 0 -178 0 -183 23 -3 12 -4 87 -3 167
l3 145 145 5 c80 3 163 7 186 8 22 1 45 -3 52 -10z"/>
<path d="M1110 2346 c0 -168 3 -307 8 -309 4 -3 141 -2 305 1 l297 5 0 70 0
70 -232 -4 -233 -4 -6 180 c-4 99 -7 206 -8 238 l-1 57 -65 0 -65 0 0 -304z"/>
<path d="M3510 2429 c0 -11 75 -107 95 -121 12 -9 227 -11 249 -2 12 5 16 21
16 70 l0 64 -180 0 c-125 0 -180 -3 -180 -11z"/>
<path d="M3358 1908 c-22 -7 -28 -16 -28 -39 0 -28 1 -29 45 -22 51 7 75 -7
75 -42 0 -25 -56 -80 -96 -95 -20 -8 -24 -17 -24 -50 l0 -40 115 0 115 0 0 40
0 40 -52 0 -52 0 47 47 c41 41 47 51 47 89 0 60 -32 84 -109 83 -31 0 -68 -5
-83 -11z"/>
<path d="M3630 1881 c0 -39 1 -40 38 -43 35 -3 37 -5 39 -38 2 -19 6 -68 9
-107 l6 -73 39 0 c30 0 39 4 40 18 0 9 1 58 2 107 l2 90 38 3 c42 4 53 18 43
57 -6 25 -6 25 -131 25 l-125 0 0 -39z"/>
<path d="M3633 1549 c-43 -16 -23 -73 23 -67 23 2 30 9 32 30 4 32 -22 50 -55
37z m37 -34 c0 -25 -23 -35 -35 -15 -10 16 2 40 20 40 9 0 15 -9 15 -25z"/>
<path d="M3827 1553 c-3 -5 -3 -19 -2 -33 2 -14 4 -28 4 -32 1 -5 11 -8 24 -7
12 0 16 3 10 6 -19 7 -16 23 4 23 15 0 14 2 -3 15 -11 8 -14 15 -6 15 6 0 12
5 12 10 0 12 -37 14 -43 3z"/>
<path d="M3334 1539 c-4 -7 4 -20 17 -30 21 -16 20 -24 -3 -20 -5 0 -8 -3 -8
-9 0 -16 40 -11 47 5 3 9 -2 22 -13 30 -17 13 -17 16 -4 25 12 8 11 10 -7 10
-12 0 -25 -5 -29 -11z"/>
<path d="M3429 1533 c5 -10 13 -27 17 -38 7 -18 8 -18 12 5 2 14 9 31 14 38 8
9 3 12 -21 12 -27 0 -30 -3 -22 -17z"/>
<path d="M3520 1514 c0 -30 2 -34 14 -25 11 9 16 9 22 0 5 -9 10 -7 15 7 16
40 10 54 -21 54 -28 0 -30 -3 -30 -36z m40 17 c0 -6 -4 -13 -10 -16 -5 -3 -10
1 -10 9 0 9 5 16 10 16 6 0 10 -4 10 -9z"/>
<path d="M3720 1521 c0 -31 15 -50 23 -29 4 10 7 11 18 1 18 -18 34 -16 19 2
-7 8 -9 23 -4 37 6 21 5 22 -11 8 -14 -11 -19 -12 -22 -2 -8 23 -23 12 -23
-17z"/>
<path d="M2452 1188 c-7 -7 -12 -22 -12 -34 0 -17 8 -23 38 -28 66 -11 90 -7
97 14 12 38 -11 60 -63 60 -27 0 -53 -5 -60 -12z"/>
<path d="M2350 1055 l0 -26 158 3 c149 3 157 4 157 23 0 19 -8 20 -157 23
l-158 3 0 -26z"/>
<path d="M2240 981 c0 -5 34 -9 76 -9 42 0 81 -5 86 -10 5 -5 8 -31 6 -58 l-3
-49 -80 0 -80 0 -5 55 -6 55 -8 -60 c-4 -33 -11 -84 -15 -112 -5 -29 -5 -53
-2 -53 4 0 45 16 91 36 131 55 159 64 201 64 43 0 133 -29 224 -72 91 -42 93
-41 83 45 -4 39 -12 95 -16 122 l-7 50 -273 3 c-156 1 -272 -2 -272 -7z m315
-9 l36 -2 -3 -57 -3 -58 -74 -3 c-85 -3 -91 1 -91 66 0 47 17 61 72 57 15 -1
44 -2 63 -3z m207 -2 c17 0 19 -6 16 -57 l-3 -58 -73 -3 c-91 -4 -104 5 -100
67 3 45 4 46 43 52 22 4 53 5 69 3 16 -2 37 -4 48 -4z"/>
<path d="M2477 923 c-15 -15 -5 -23 28 -23 24 0 35 5 35 15 0 15 -50 22 -63 8z"/>
<path d="M2657 923 c-16 -15 -5 -23 33 -23 29 0 40 4 40 15 0 10 -10 15 -33
15 -19 0 -37 -3 -40 -7z"/>
<path d="M2290 915 c0 -10 11 -15 35 -15 24 0 35 5 35 15 0 10 -11 15 -35 15
-24 0 -35 -5 -35 -15z"/>
<path d="M2470 793 c-8 -3 -106 -44 -218 -91 -223 -94 -269 -137 -56 -51 71
28 170 66 220 84 l91 33 69 -23 c38 -13 136 -51 218 -84 137 -55 176 -66 150
-42 -9 10 -292 130 -379 162 -52 19 -69 21 -95 12z"/>
<path d="M2430 690 c-25 -11 -110 -44 -190 -76 -80 -31 -148 -58 -152 -60 -4
-3 16 -56 44 -120 28 -63 48 -118 44 -121 -3 -3 -24 1 -47 10 -25 10 -48 13
-57 8 -17 -10 -14 -12 61 -36 52 -17 62 -18 105 -5 58 17 113 17 170 -1 34
-11 50 -11 85 0 75 22 95 23 141 6 47 -18 78 -17 153 6 37 11 49 11 90 -4 27
-9 56 -17 66 -17 32 0 17 16 -27 29 -84 24 -84 24 -32 141 25 57 45 105 43
106 -13 13 -400 154 -423 153 -16 0 -49 -9 -74 -19z"/>
<path d="M2052 219 c5 -14 104 -49 138 -49 14 1 36 7 50 15 14 8 43 14 65 14
22 0 51 -6 65 -14 33 -19 81 -19 130 1 42 17 73 15 148 -7 35 -11 48 -11 75 0
51 22 111 25 145 7 34 -17 72 -21 72 -7 0 5 -28 19 -61 31 -64 24 -64 24 -165
-8 -23 -7 -41 -6 -70 5 -63 24 -108 27 -144 8 -41 -21 -88 -22 -128 -1 -41 21
-69 20 -135 -5 l-55 -21 -47 21 c-52 23 -89 27 -83 10z"/>
</g>
</svg>
